<?xml version="1.0" encoding="UTF-8" ?>
<!DOCTYPE svg PUBLIC "-//W3C//DTD SVG 1.1//EN" "http://www.w3.org/Graphics/SVG/1.1/DTD/svg11.dtd">
<svg width="400pt" height="300pt" viewBox="0 0 400 300" version="1.1" xmlns="http://www.w3.org/2000/svg">
<g id="#010101ff">
<path fill="#010101" opacity="1.00" d=" M 99.02 115.62 C 111.00 116.68 122.96 117.92 134.94 118.94 C 133.88 120.94 132.58 122.81 131.60 124.85 C 130.44 126.07 132.14 127.10 132.82 127.95 C 151.18 118.21 172.69 112.58 193.41 116.78 C 202.69 118.61 212.13 123.57 216.15 132.58 C 229.41 132.61 242.66 132.45 255.91 132.67 C 265.57 133.21 276.17 134.55 283.66 141.28 C 288.44 145.39 290.28 151.93 289.64 158.07 C 292.87 158.97 296.11 160.36 298.22 163.09 C 302.10 167.81 302.33 174.26 302.41 180.08 C 293.61 180.10 284.80 180.09 276.00 180.08 C 273.47 179.93 271.40 181.63 269.13 182.44 C 261.92 185.26 253.16 185.72 246.48 181.30 C 245.07 180.51 243.84 179.06 242.08 179.25 C 213.16 179.26 184.25 179.24 155.33 179.25 C 154.80 174.97 154.42 170.36 156.52 166.41 C 158.46 162.46 162.28 159.86 166.23 158.18 C 178.15 153.17 191.62 154.10 203.60 149.34 C 207.61 147.84 210.68 144.12 210.54 139.70 C 194.34 139.63 178.15 139.81 161.96 139.60 C 152.03 139.20 141.82 138.93 132.38 135.52 C 127.88 134.03 123.87 130.14 124.04 125.11 C 117.55 124.46 111.05 123.85 104.54 123.30 C 104.62 126.42 106.35 129.29 109.04 130.86 C 117.02 135.89 126.88 136.93 134.70 142.27 C 142.89 147.89 146.51 159.15 143.31 168.52 C 140.63 176.99 132.74 183.49 123.89 184.44 C 114.66 185.71 105.05 180.72 100.64 172.54 C 95.84 164.13 97.10 152.78 103.68 145.66 C 105.56 143.32 108.34 141.92 110.17 139.54 C 105.28 137.36 100.24 134.13 98.39 128.83 C 96.75 124.52 97.91 119.90 99.02 115.62 M 142.91 131.00 C 152.87 132.43 162.94 132.64 172.98 132.57 C 184.65 132.52 196.33 132.66 208.00 132.49 C 203.61 127.07 196.74 124.51 190.06 123.39 C 174.03 120.68 157.51 124.25 142.91 131.00 M 217.60 139.72 C 217.78 145.77 214.58 151.72 209.12 154.49 C 196.83 161.05 182.22 159.66 169.36 164.50 C 165.90 165.74 162.69 168.33 162.06 172.14 C 185.05 172.15 208.03 172.15 231.02 172.15 C 233.46 172.16 235.94 172.32 238.36 171.79 C 235.12 164.48 237.12 155.36 242.89 149.90 C 247.31 145.40 253.96 143.32 260.17 144.31 C 269.03 145.40 274.24 154.03 282.78 156.09 C 282.81 151.73 280.82 147.42 277.05 145.07 C 269.62 140.42 260.52 139.84 251.98 139.69 C 240.52 139.73 229.06 139.66 217.60 139.72 M 104.91 159.37 C 103.44 169.33 112.95 178.92 122.93 177.42 C 133.28 176.62 140.57 164.46 136.06 155.01 C 133.43 147.63 125.34 145.28 118.75 142.77 C 112.57 146.56 105.72 151.54 104.91 159.37 M 243.98 162.90 C 242.94 170.44 249.70 177.30 257.07 177.49 C 266.86 177.80 275.97 171.76 280.84 163.49 C 277.56 161.59 273.98 160.26 270.83 158.14 C 266.94 155.86 263.86 151.86 259.12 151.32 C 251.97 150.00 244.63 155.70 243.98 162.90 M 282.85 172.90 C 286.89 172.91 290.94 172.96 294.98 172.85 C 294.29 169.07 291.90 165.65 287.93 164.88 C 286.43 167.67 284.86 170.44 282.85 172.90 Z" />
</g>
</svg>
